<?xml version="1.0" encoding="utf-8"?>
<!-- Generator: Adobe Illustrator 28.0.0, SVG Export Plug-In . SVG Version: 6.00 Build 0)  -->
<svg version="1.1" id="Layer_1" xmlns="http://www.w3.org/2000/svg" xmlns:xlink="http://www.w3.org/1999/xlink" x="0px" y="0px"
	 viewBox="0 0 612 792" style="enable-background:new 0 0 612 792;" xml:space="preserve">
<style type="text/css">
	.st0{fill:#FFFFFF;}
</style>
<g>
	<path class="st0" d="M98.1,207c-3.9,1.8-7.4,3.4-11.1,5.2c6.1,13.2,12.1,26,18.1,39.1c3.9-1.8,7.4-3.4,11.1-5.1
		C110.1,232.9,104.2,220.1,98.1,207z M211.9,251.2c6.1-13.3,12.1-26.1,18.1-39.1c-3.9-1.8-7.3-3.4-11.1-5.1
		c-6,13.1-12,25.9-18.1,39.1C204.5,247.8,208,249.4,211.9,251.2z M152.7,194.3c0,14.4,0,28.5,0,42.6c4.1,0,7.9,0,11.6,0
		c0-14.3,0-28.4,0-42.6C160.4,194.3,156.8,194.3,152.7,194.3z"/>
	<path d="M495.9,542.2c-47.2,0-94.5,0-141.7,0c-83,0-166.1,0-249.1,0c-1.7,0-3.4,0-5.5,0c0-83.8,0-167.4,0-251.4
		c8.2,0,16.2,0,24.7,0c0-7.7,0-15,0-22.5c22.9,0,45.3,0,68.4,0c0,7.3,0,14.7,0,22.5c8.3,0,15.9,0,23.6,0c4.8,0,10.4,1.4,14.1-0.6
		c3.6-2.1,5.3-7.7,7.8-11.8c5.9-9.9,11.8-19.9,17.6-29.9c1.3-2.3,2.8-3.3,5.6-3.3c24.4,0.1,48.7,0.1,73.1,0c2.5,0,3.8,0.8,5,2.9
		c7.7,13.3,15.6,26.6,23.4,39.9c1.1,1.8,2.1,2.9,4.6,2.9c42.8-0.1,85.7-0.1,128.5-0.1C495.9,374.5,495.9,458.3,495.9,542.2z
		 M388.2,374.1c21.3,49.1,2,95.2-27,119.1c-31.4,25.8-76.1,31.4-110.8,10.7c-50.6-30.3-62.5-75.1-44.2-129.7c-31.2,0-62.7,0-94.3,0
		c0,51.9,0,103.6,0,155.3c123.9,0,247.6,0,371.4,0c0-51.9,0-103.6,0-155.4C451.6,374.1,420.1,374.1,388.2,374.1z M111.9,361.6
		c1.1,0.1,1.8,0.1,2.6,0.1c32.3,0,64.7,0,97-0.1c1.6,0,3.7-1.4,4.6-2.7c40.4-56.2,122.5-56.3,162.8-0.1c1.6,2.3,3.3,2.9,5.9,2.9
		c31.5-0.1,63.1,0,94.6,0c1.3,0,2.6,0,4.1,0c0-19.6,0-38.9,0-58.3c-124,0-247.7,0-371.6,0C111.9,322.9,111.9,342,111.9,361.6z
		 M210.3,419.3c1.9,49.5,43.4,86.4,90.9,84.4c49.3-2.1,87.1-43.8,83.6-93.4c-3.3-47.8-43.7-83.3-91.1-81.1
		C243.2,331.6,208.6,374.1,210.3,419.3z M350.1,290.6c-6.4-10.8-12.3-21-18.5-31c-0.6-1-2.6-1.8-3.9-1.8c-20.1-0.1-40.2-0.1-60.2,0
		c-1.5,0-3.5,1.2-4.3,2.5c-4.3,6.7-8.2,13.6-12.3,20.5c-1.9,3.1-3.7,6.3-5.7,9.8C280.4,290.6,314.9,290.6,350.1,290.6z M136.7,290.5
		c14.7,0,29.1,0,43.6,0c0-3.5,0-6.7,0-10c-14.6,0-29,0-43.6,0C136.7,283.9,136.7,287,136.7,290.5z"/>
	<path d="M98.1,207c6,13.1,12,25.9,18.1,39.1c-3.8,1.7-7.2,3.3-11.1,5.1c-6.1-13.1-12-25.9-18.1-39.1
		C90.7,210.4,94.2,208.8,98.1,207z"/>
	<path d="M211.9,251.2c-3.9-1.8-7.4-3.4-11.1-5.1c6.1-13.2,12-26,18.1-39.1c3.8,1.8,7.3,3.4,11.1,5.1
		C224,225.1,218.1,237.9,211.9,251.2z"/>
	<path d="M152.7,194.3c4,0,7.7,0,11.6,0c0,14.2,0,28.2,0,42.6c-3.7,0-7.5,0-11.6,0C152.7,222.8,152.7,208.7,152.7,194.3z"/>
	<path d="M411.4,507.9c16.5,0,32.7,0,49.5,0c0-4.2,0-8.3,0-12.5c4.3,0,8.1,0,12.2,0c0,8,0,16,0,24.4c-20.5,0-41,0-61.7,0
		C411.4,515.9,411.4,512.2,411.4,507.9z"/>
	<path d="M461.1,487.6c0-6-0.1-11.7,0.1-17.4c0-0.7,1.4-1.9,2.2-2c3.2-0.2,6.3-0.1,9.8-0.1c0,6.6,0,12.9,0,19.4
		C469.3,487.6,465.5,487.6,461.1,487.6z"/>
	<path d="M467.7,317.5c0,10,0,19.7,0,29.6c-12.1,0-24.1,0-36.3,0c0-9.8,0-19.6,0-29.6C443.4,317.5,455.4,317.5,467.7,317.5z
		 M455.4,335.1c0-1.9,0-3.5,0-5.1c-4.1,0-8,0-11.8,0c0,1.9,0,3.4,0,5.1C447.6,335.1,451.2,335.1,455.4,335.1z"/>
	<path d="M186.5,317.4c0,4,0,7.8,0,11.9c-18.7,0-37.2,0-56,0c0-3.9,0-7.8,0-11.9C149.2,317.4,167.8,317.4,186.5,317.4z"/>
	<path d="M296.7,379.7c5.8-3.2,10.8-7,16.4-8.9c23.8-8,47.9,10.3,47.1,35.5c-0.3,8.5-3,16.2-8,22.9c-15.4,20.3-35.3,36-54.8,52.9
		c-11.4-10.3-22.9-19.9-33.6-30.5c-8.2-8.1-16.2-16.6-22.7-26.1c-8.9-12.8-8.5-27-0.3-40.2c7.8-12.5,19.8-17.7,34.4-16.4
		c6.7,0.6,12.8,3.3,18.1,7.6C294.7,377.8,296,379.1,296.7,379.7z M297.8,466.1c10.5-9.8,21-19,30.9-28.8c5.4-5.3,10.6-11,14.7-17.3
		c8.4-13.2,4.9-29-7.2-35.8c-12-6.8-27.9-2.7-34.5,12.2c-1.1,2.5-2.6,4.9-4.1,7.6c-2.3-4.2-4.2-8.2-6.6-11.9
		c-9.1-14.2-29.1-15-39.2-1.5c-6.2,8.3-6.3,21.2,0.7,30.6C265.2,438.2,281.5,451.5,297.8,466.1z"/>
</g>
</svg>
